<svg xmlns="http://www.w3.org/2000/svg" viewBox="0 0 320 120" fill="none" role="img" aria-label="King's Chair">
  <text
    x="160"
    y="52"
    text-anchor="middle"
    font-family="'Playfair Display', Georgia, serif"
    font-size="36"
    font-weight="600"
    letter-spacing="0.04em"
    fill="#1c1917"
  >
    King&#8217;s Chair
  </text>
  <path
    d="M60 78h200M90 78v-8c0-6 4-10 10-10h120c6 0 10 4 10 10v8M110 60h100M130 60v-6c0-4 3-7 7-7h46c4 0 7 3 7 7v6"
    stroke="#b8956f"
    stroke-width="2.5"
    stroke-linecap="round"
    stroke-linejoin="round"
  />
  <path
    d="M145 48l5-10 5 10M165 48l5-10 5 10M185 48l5-10 5 10"
    stroke="#b8956f"
    stroke-width="2"
    stroke-linecap="round"
  />
  <text
    x="160"
    y="102"
    text-anchor="middle"
    font-family="Inter, system-ui, sans-serif"
    font-size="11"
    font-weight="500"
    letter-spacing="0.35em"
    fill="#78716c"
  >
    HAIRDRESSING
  </text>
</svg>
