<svg version="1.0" xmlns="http://www.w3.org/2000/svg"
 viewBox="0 0 372 948"
 preserveAspectRatio="xMidYMid meet">
<g transform="translate(0.000000,948.000000) scale(0.100000,-0.100000)"
fill="#ffffff" stroke="none">
<path d="M1833 9275 c-15 -10 -26 -37 -37 -83 -24 -108 -83 -255 -111 -279 -27 -24 -100 -39 -141 -29 -14 4 -47 29 -73 56 -68 70 -133 68 -201 -5 -14 -15 -50 -40 -80 -55 -30 -15 -68 -43 -85 -60 -71 -76 -156 -82 -288 -21 -79 37 -89 38 -147 7 -25 -13 -70 -31 -100 -41 -62 -20 -177 -121 -210 -186 -11 -20 -37 -52 -58 -70 -48 -42 -57 -59 -88 -162 -30 -103 -30 -117 1 -208 34 -101 42 -114 86 -144 24 -16 49 -45 65 -78 14 -28 45 -70 69 -92 27 -25 49 -58 60 -90 19 -53 90 -159 161 -237 55 -62 84 -164 84 -296 0 -59 7 -121 19 -170 25 -96 43 -297 30 -326 -5 -11 -25 -43 -44 -69 -50 -70 -54 -105 -19 -174 46 -92 98 -113 273 -113 82 0 92 -3 172 -41 l84 -42 205 -13 c361 -23 893 -14 1040 17 30 6 88 25 129 41 61 25 96 31 200 38 173 12 213 30 252 115 38 82 25 139 -49 218 l-45 49 8 66 c10 80 10 109 0 182 -7 50 -5 59 17 85 48 57 51 71 28 121 -31 71 -27 105 20 158 30 36 42 60 51 109 11 57 18 67 76 124 35 34 63 67 63 73 0 6 20 32 44 58 24 26 57 74 74 107 16 33 44 74 62 90 17 17 41 48 52 70 11 22 36 61 55 87 68 93 82 251 30 337 -17 29 -48 80 -67 112 -31 52 -216 239 -238 239 -37 1 -146 33 -182 54 -56 32 -88 33 -150 1 -68 -34 -171 -58 -203 -46 -13 5 -36 29 -50 53 -34 58 -53 74 -126 103 -35 14 -81 38 -103 53 -68 44 -110 38 -167 -26 l-46 -52 -71 0 c-106 0 -119 13 -120 124 -3 173 -124 322 -211 261z m-295 -524 c70 -28 112 -68 145 -139 l30 -64 1 -202 1 -201 -37 -103 c-45 -123 -67 -157 -114 -172 -81 -27 -115 43 -117 246 l-2 131 -46 51 c-58 64 -113 207 -113 292 0 67 34 144 72 165 37 19 128 18 180 -4z m930 3 c42 -29 51 -63 48 -180 -2 -118 -9 -138 -63 -194 -71 -75 -133 -151 -133 -164 0 -7 7 -33 15 -56 20 -58 19 -109 -4 -147 -11 -17 -29 -63 -41 -102 -28 -96 -69 -124 -121 -82 -20 16 -24 29 -25 78 -1 32 -2 68 -3 81 0 13 -22 45 -47 72 l-47 50 -1 237 c-1 280 0 286 84 343 107 73 279 106 338 64z m442 -194 c21 -11 52 -37 67 -57 15 -20 49 -59 75 -86 80 -85 84 -169 11 -275 -61 -88 -67 -108 -67 -214 -1 -89 -3 -99 -26 -123 -62 -66 -143 -80 -177 -29 -12 20 -51 155 -53 186 0 4 19 16 43 26 81 37 119 112 83 167 -19 28 -44 32 -85 11 -37 -20 -51 -55 -51 -131 0 -39 -4 -65 -11 -65 -6 0 -39 -30 -73 -66 -50 -52 -67 -65 -84 -60 -22 7 -62 90 -62 129 0 53 41 157 80 201 28 34 41 60 50 103 6 32 20 74 29 93 22 43 129 192 145 202 20 14 66 8 106 -12z m-1883 -12 c12 -13 35 -51 52 -85 17 -33 41 -77 54 -96 13 -19 29 -60 35 -90 10 -53 44 -116 104 -201 21 -30 28 -50 28 -87 0 -105 -31 -128 -135 -100 -98 28 -105 37 -98 132 8 101 -7 129 -69 129 -99 0 -103 -56 -11 -168 40 -50 43 -58 43 -111 0 -106 -24 -141 -96 -141 -67 0 -139 105 -155 228 -4 37 -20 105 -34 152 -51 166 -49 153 -26 228 51 169 232 292 308 210z m-468 -67 c11 -20 5 -48 -24 -115 -19 -44 -15 -72 22 -160 15 -37 30 -104 40 -184 l16 -125 -24 -19 c-25 -21 -69 -19 -96 4 -32 26 -83 149 -98 234 -28 164 -20 202 71 307 70 82 78 87 93 58z m2754 -21 c54 -43 80 -167 61 -295 -7 -47 -12 -115 -12 -150 2 -69 -13 -98 -56 -111 -11 -4 -40 -22 -63 -40 -87 -71 -123 -30 -69 79 55 113 66 173 66 354 0 188 10 212 73 163z m-1407 -478 c18 -11 34 -49 34 -77 0 -56 -86 -100 -110 -56 -34 64 25 167 76 133z m-832 -1292 c36 -13 32 -28 -9 -46 -41 -17 -115 -4 -115 21 0 27 78 43 124 25z M1905 5200 c-11 -5 -57 -6 -102 -3 l-83 6 -59 -61 c-89 -94 -151 -115 -259 -91 -41 10 -62 9 -123 -6 l-74 -17 -103 -107 c-134 -137 -140 -150 -154 -348 -10 -140 -9 -164 6 -215 21 -73 95 -171 161 -214 117 -76 111 -58 89 -262 -9 -80 13 -127 66 -143 54 -16 82 -6 138 51 44 44 54 50 92 50 63 0 110 -49 110 -116 -1 -59 -9 -72 -78 -114 -59 -36 -82 -71 -82 -127 0 -52 19 -76 96 -119 127 -71 151 -115 135 -248 -20 -168 26 -526 68 -526 6 0 27 11 47 25 46 31 59 31 106 -1 66 -46 102 -34 144 48 40 80 56 294 34 450 -11 78 -6 99 45 165 46 60 63 71 127 83 145 27 158 155 21 210 -102 41 -134 92 -114 181 14 60 36 78 107 85 l60 6 49 -51 c53 -55 93 -72 139 -60 60 17 66 31 64 148 -1 136 15 176 100 250 40 35 73 75 96 119 20 37 46 83 57 102 19 32 20 48 16 185 -5 194 -25 239 -177 399 -102 108 -110 110 -309 111 l-165 0 -34 45 c-63 83 -193 138 -257 110z m112 -185 l35 -35 -7 -85 -7 -85 49 0 c45 0 53 4 100 50 l51 50 126 0 127 0 39 -37 c22 -21 59 -78 84 -128 25 -49 60 -108 77 -131 26 -34 31 -53 36 -116 6 -77 5 -78 -40 -163 -9 -16 -28 -57 -42 -90 -31 -71 -96 -142 -143 -154 -38 -11 -249 -3 -275 11 -9 5 -37 39 -62 76 -25 37 -73 103 -108 146 l-62 79 -3 76 c-3 54 2 99 17 155 12 44 21 97 21 117 0 36 -1 38 -37 41 -21 2 -65 -1 -97 -6 -56 -9 -61 -8 -75 13 -9 12 -37 50 -63 83 -83 106 -66 136 81 154 145 17 140 17 178 -21z m-450 -126 c41 -21 87 -57 136 -108 73 -75 75 -77 87 -150 21 -123 -8 -280 -55 -297 -9 -4 -36 -36 -61 -73 -101 -151 -149 -186 -247 -177 -149 14 -168 25 -228 128 -22 37 -52 76 -68 88 -36 25 -79 109 -87 171 -7 53 -3 63 88 201 34 53 75 117 89 141 66 110 213 142 346 76z m377 -701 c59 -65 81 -115 106 -246 13 -65 -6 -155 -51 -244 -23 -44 -27 -223 -8 -338 l12 -69 -42 -69 c-83 -137 -114 -145 -166 -42 -15 29 -16 47 -10 120 5 47 7 168 6 270 -3 189 -9 219 -47 251 -51 42 -48 121 7 191 19 24 37 66 50 120 37 145 56 153 143 56z M1730 2095 c-21 -25 -24 -106 -5 -176 9 -35 20 -111 25 -169 5 -58 16 -130 25 -160 8 -30 15 -81 15 -114 0 -32 4 -97 10 -145 5 -47 14 -142 20 -210 22 -259 70 -341 116 -197 29 88 30 407 4 656 -12 113 -25 250 -29 305 -9 118 -15 132 -82 185 -54 43 -79 49 -99 25z"/>
</g>
</svg>
